<svg xmlns="http://www.w3.org/2000/svg" width="32" height="32" viewBox="0 0 32 32" fill="none">
  <g transform="translate(16,16)">
    <path d="M-1.4,-13 A13.5,13.5 0 0,1 7.9,-10.9" stroke="#00d4ff" stroke-width="1.5" fill="none" stroke-linecap="round" opacity=".5"/>
    <path d="M9.4,-7.8 A13.5,13.5 0 0,1 13.2,2.5" stroke="#00e5a0" stroke-width="1.5" fill="none" stroke-linecap="round" opacity=".5"/>
    <path d="M12.1,5.8 A13.5,13.5 0 0,1 2.5,13.2" stroke="#ffb627" stroke-width="1.5" fill="none" stroke-linecap="round" opacity=".5"/>
    <path d="M-0.5,13.5 A13.5,13.5 0 0,1 -12.1,5.8" stroke="#ff3b5c" stroke-width="1.5" fill="none" stroke-linecap="round" opacity=".5"/>
    <path d="M-13.2,2.5 A13.5,13.5 0 0,1 -5.9,-11.8" stroke="#b388ff" stroke-width="1.5" fill="none" stroke-linecap="round" opacity=".5"/>
    <circle cx="2.5" cy="-7.6" r="1.5" fill="#00d4ff" opacity=".6"/>
    <circle cx="8" cy="0" r="1.5" fill="#00e5a0" opacity=".6"/>
    <circle cx="2.5" cy="7.6" r="1.5" fill="#ffb627" opacity=".6"/>
    <circle cx="-6.5" cy="4.7" r="1.5" fill="#ff3b5c" opacity=".6"/>
    <circle cx="-6.5" cy="-4.7" r="1.5" fill="#b388ff" opacity=".6"/>
    <circle cx="0" cy="0" r="3" fill="rgba(0,212,255,.1)" stroke="#00d4ff" stroke-width="1"/>
    <circle cx="0" cy="0" r="1.2" fill="#00d4ff"/>
  </g>
</svg>
